<svg width="69" height="56" fill="none" xmlns="http://www.w3.org/2000/svg"><g clip-path="url(#a)" fill="#303030"><path d="m39.1496 16.87-1.31-1c-.2048-.1657-.4667-.244-.7288-.2178-.2622.0262-.5034.1548-.6712.3578l-18.13 20.82.28.31 4.49-4.14c-.1497-.0602-.2735-.1709-.3499-.3129-.0765-.142-.1008-.3064-.0687-.4644.0321-.1581.1185-.3.2443-.4009.1258-.101.283-.1547.4443-.1518.1454 0 .287.0466.404.133.117.0864.2032.208.246.347l5.92-5.49c.0906-.073.2035-.1128.32-.1128.1164 0 .2293.0398.32.1128l.3.22c.1015.0728.2265.1049.3505.0901.124-.0148.238-.0755.3195-.1701l7.74-8.68c.0822-.0861.145-.189.184-.3016.0389-.1126.0532-.2322.0418-.3508-.0114-.1186-.0481-.2333-.1078-.3364-.0597-.1032-.1409-.1922-.238-.2612Z"/><path d="M47.6703 22.73c-3.9675 2.823-8.4122 4.9064-13.12 6.15-4.6726 1.1883-9.4538 1.8986-14.27 2.12.097.7102.2713 1.4077.52 2.08 2.72 2.46 23.2-1.74 27.2-6.6.85-1.01-.33-3.75-.33-3.75ZM23.3503 33c-.1345 0-.266-.0399-.3778-.1146-.1118-.0747-.199-.1809-.2505-.3052-.0514-.1243-.0649-.261-.0387-.3929.0263-.1319.091-.2531.1861-.3482.0951-.0951.2163-.1598.3482-.1861.1319-.0262.2686-.0127.3929.0387.1243.0515.2305.1387.3052.2505.0747.1118.1146.2433.1146.3778.0013.0897-.0153.1787-.049.2618-.0337.0831-.0838.1586-.1472.222-.0634.0634-.1389.1135-.222.1472-.0831.0337-.1722.0503-.2618.049ZM4.0003 21.2899l.16-.69 2.6.59c.2145.3962.34713.8315.39 1.28.04963.4751.01921.9551-.09 1.42-.12945.6453-.42599 1.2453-.86 1.74-.41291.4671-.94533.8129-1.54 1-.61291.189-1.26479.2132-1.89.07-.62658-.1353-1.20413-.4396-1.67-.88-.458731-.423-.788135-.9673-.950001-1.57-.1795654-.6545-.1795654-1.3454 0-2 .107478-.4899.300427-.957.57-1.38.255139-.3846.597841-.7034 1.000001-.93l.36.55c-.3447.2117-.64058.494-.86812.8284-.227537.3344-.381554.7133-.451881 1.1116-.124013.5174-.113686 1.0578.03 1.57.13437.4864.400901.926.770001 1.27.37938.3668.85403.6197 1.37.73.50033.1405 1.02967.1405 1.53 0 .47929-.1582.90977-.4371 1.25-.81.34964-.4026.5906-.888.7-1.41.16453-.6331.12249-1.3023-.12-1.91l-2.29-.58ZM9.65992 15.0001l-2.33 3.11 1 1.79-.46.62-3.7-6.75.43-.59 7.52998 1.62-.47.62-1.99998-.42Zm-.66-.16-4-.9 2 3.59 2-2.69ZM9 8.54998l.6-.45L13.41 13.2l3.14-2.35.38.51-3.73 2.79L9 8.54998ZM15.2998 4.37996l.67-.3 2.64 5.78 3.57-1.62.26.58-4.24 1.93004-2.9-6.37004ZM28.48 6.68003l.15.63-4.82 1.13-1.6-6.82L26.89.530029l.14.620001-4 .93.57 2.42 3.52-.83.15.62-3.53.82.6 2.53 4.14-.96ZM35.3498 6.92997l-1.67-2.2c-.1865.01032-.3734.01032-.56 0l-1.88.06.07 2.22h-.74l-.23-7.0000013 2.66-.01c.7521-.0694581 1.5042.1327523 2.12.5700003.2596.208993.4682.474211.6103.775631.142.30142.2138.63118.2097.96437.0292.49419-.1004.98476-.37 1.4-.2873.39856-.6933.69606-1.16.85l1.75 2.34-.81.03Zm-.7-3.29c.1798-.16466.3193-.36843.4077-.59558.0884-.22714.1234-.47158.1023-.71442.0052-.24413-.0452-.48623-.1474-.70799-.1023-.22176-.2536-.41737-.4426-.57201-.4609-.312522-1.0151-.457263-1.57-.410001l-1.9.07.12 3.500001 1.86-.06c.5672.02099 1.1235-.15971 1.57-.51ZM40.6396 5.07l-.36 2.39-.73-.11.37-2.35-2.07-5 .78.12 1.77 4.26 3-3.53.7.15-3.46 4.07ZM50.5298 4.65005l.87 1.13-.38.3-.87-1.16-.55 1.31-.42-.18.56-1.31-1.44.19v-.48l1.42-.16-.88-1.13.39-.3.77 1.14.54-1.32.43.18-.51 1.34 1.44-.2v.49l-1.37.16ZM53.8704 12.71c-.2361-.364-.3834-.7785-.43-1.21l.59-.26c.0443.3964.1739.7785.38 1.12.2234.383.5149.7219.86 1 .3565.3413.8113.5617 1.3.63.1766.0164.3545-.0106.5183-.0785.1638-.068.3086-.1749.4217-.3115.083-.0915.1462-.1991.1858-.316.0395-.117.0546-.2409.0442-.364-.033-.2437-.1147-.4783-.24-.69-.1879-.3069-.3915-.604-.61-.89-.2662-.3488-.5068-.7164-.72-1.1-.1629-.28704-.2522-.60997-.26-.93996-.0007-.37058.1386-.72774.39-1 .218-.26387.5055-.46135.83-.57.3626-.10473.7474-.10473 1.11 0 .4672.15278.899.39759 1.27.72.3079.25607.5803.55201.81.88.2125.30416.3714.64235.47.99996l-.57.3c-.0994-.3333-.2477-.65009-.44-.93996-.1915-.25886-.4169-.49091-.67-.69-.3511-.33976-.8046-.55417-1.29-.61-.1784-.01492-.3577.01474-.5217.08631-.1641.07157-.3078.1828-.4183.32369-.085.09009-.1496.19749-.1893.31485-.0397.11737-.0536.24192-.0407.36515.0234.25217.1056.49534.24.70996.14.23.34.53.61.89.2677.3408.5084.7019.72 1.08.1664.2862.2592.6092.27.94.0007.3706-.1386.7278-.39 1-.2187.2675-.5106.4656-.84.57-.3619.1093-.748.1093-1.11 0-.4703-.1523-.9055-.3971-1.28-.72-.4036-.3513-.7421-.771-1-1.24ZM63.9297 14.17l-1.41-2 .52-.37 3.25 4.64-.52.37-1.41-2-5.22 3.65-.42-.61 5.21-3.68ZM61.6902 22.39c.1785-.6044.5254-1.1455 1-1.56.4643-.4159 1.03-.7021 1.64-.83.6219-.1428 1.2705-.1186 1.88.07.5884.1945 1.1157.5392 1.53 1 .4308.4956.7239 1.0956.85 1.74.1657.6326.1657 1.2973 0 1.93-.1834.6021-.5294 1.1419-1 1.56-.4771.427-1.0567.7233-1.6823.86-.6256.1367-1.2759.1091-1.8877-.08-.5928-.1851-1.1225-.5313-1.53-1-.4288-.493-.7218-1.0893-.85-1.73-.1527-.6467-.1355-1.322.05-1.96Zm1.31 3.18c.3339.3802.7666.6606 1.25.81.4983.1445 1.025.1617 1.5316.0498.5067-.1118.9772-.349 1.3684-.6898.3691-.3396.6417-.7709.79-1.25.1395-.5059.1531-1.0383.0398-1.5507-.1133-.5124-.3501-.9893-.6898-1.3893-.3485-.3821-.7945-.6621-1.29-.81-.5046-.134-1.0354-.134-1.54 0-.5091.0977-.9804.3368-1.36.69-.3725.3408-.6455.7762-.79 1.26-.1358.5077-.1358 1.0422 0 1.55.1095.4961.3475.9547.69 1.33ZM60.9302 34l2.59-1c0-.18.06-.36.11-.55l.49-1.81-2.12-.55.19-.71 6.76 1.81-.68 2.53c-.1531.7382-.5644 1.3977-1.16 1.86-.2736.1901-.5875.3142-.9171.3628-.3296.0486-.666.0202-.9829-.0828-.4825-.1047-.915-.3708-1.2259-.7544-.3109-.3836-.4816-.8618-.4841-1.3556l-2.76 1 .19-.75Zm3.35.28c.1172.2125.2761.3992.4672.5487.1911.1495.4105.2589.645.3215.2344.0626.4791.0771.7194.0427.2402-.0344.471-.117.6784-.2429.4414-.3545.7426-.8542.85-1.41l.48-1.8-3.39-.91-.48 1.8c-.1845.5364-.1738 1.1207.03 1.65ZM57.3401 40.44l-.51-.39 3-3.95 5.58 4.23-2.9 3.83-.51-.39 2.45-3.23-2-1.51-2.19 2.89-.5-.38 2.24-2.89-2.07-1.57-2.59 3.36ZM55.0003 48.41l-1.43.08v-.48l1.43-.01-.77-1.19.39-.25.76 1.2.62-1.34.43.23-.68 1.26 1.43-.08v.49h-1.45l.77 1.19-.39.25-.76-1.2-.66 1.3-.42-.24.73-1.21ZM42.0002 47.61l1.21.67c.2029-.3896.486-.7319.8307-1.0043.3448-.2723.7433-.4685 1.1693-.5757.3975-.1239.8155-.1681 1.23-.13.3597.0276.7053.152 1 .36.2665.2009.4625.4809.56.8.1206.3948.0993.8193-.06 1.2-.2509.5174-.5892.9876-1 1.39.3297.1772.6355.3956.91.65.1886.1949.329.4312.41.69.0513.2018.0545.4128.0093.616-.0452.2032-.1374.393-.2693.554-.2669.3847-.6652.6585-1.12.77-.3993.1523-.8407.1523-1.24 0-.1775-.0763-.335-.1928-.4599-.3403-.1249-.1475-.2139-.322-.2601-.5097-.1048-.3301-.0798-.6877.07-1 .2296-.4546.53-.8698.89-1.23l-2.41-1.34c-.0919.471-.1122.9531-.06 1.43h-.61c-.041-.5873.0268-1.1772.2-1.74l-1.26-.7.26-.56Zm1.74 1 2.65 1.47c.3473-.3316.6349-.7207.85-1.15.1099-.2899.1099-.61 0-.9-.0453-.1732-.133-.3325-.2552-.4634-.1222-.1309-.2751-.2294-.4448-.2866-.4151-.1402-.8648-.1402-1.28 0-.3392.0895-.6547.2523-.9242.4769-.2696.2246-.4866.5056-.6358.8231l.04.03Zm3.76 4c.0654-.1105.1063-.2337.1201-.3613.0138-.1276.0001-.2568-.0401-.3787-.0612-.1974-.1713-.3763-.32-.52-.2545-.2147-.533-.3992-.83-.55-.3032.2998-.5685.6357-.79 1-.1209.2272-.1495.4923-.08.74.0318.1145.0874.2209.1632.3122.0759.0914.1702.1656.2768.2178.2546.096.5354.096.79 0 .2719-.0725.5093-.239.67-.47l.04.01ZM29.8096 55.3199l.14-7h.71l-.11 5.6 2.84-4.66h.35l2.66 4.74.1-5.57h.71l-.13 7h-.61l-2.94-5.23-3.11 5.13-.61-.01ZM26.33 48c.4573.4358.7845.9901.9452 1.601.1607.611.1485 1.2546-.0352 1.859-.1643.6189-.4925 1.182-.95 1.63-.4446.437-1.0021.7417-1.61.88-.6413.1447-1.3089.124-1.94-.06-.629-.1536-1.2077-.4671-1.68-.91-.4505-.4303-.7725-.9773-.93-1.58-.1538-.6231-.1424-1.2754.0329-1.8927.1754-.6173.5087-1.1782.9671-1.6273.4367-.4359.9823-.7467 1.58-.9.638-.1443 1.3022-.1237 1.93.06.6355.161 1.218.485 1.69.94Zm-3.41-.35c-.4892.1139-.9363.3634-1.29.72-.3684.3669-.6309.8263-.76 1.33-.1395.5004-.1395 1.0295 0 1.53.1179.4869.371.9306.73 1.28.3765.3682.8414.6333 1.35.77.5085.1295 1.0414.1295 1.55 0 .4895-.1204.9382-.3689 1.3-.72.3664-.3684.6286-.8273.76-1.33.1398-.5038.1398-1.0362 0-1.54-.128-.4851-.3835-.9271-.74-1.28-.3785-.3687-.8477-.6309-1.36-.76-.5039-.1393-1.0361-.1393-1.54 0ZM15.3495 43l.27 2.75c.1716.0733.3385.1568.5.25l1.63.94 1.1-1.94.65.37-3.5 6.03-2.28-1.31c-.6739-.3385-1.2055-.9056-1.5-1.6-.1087-.3128-.1453-.6461-.1072-.9751.0381-.329.1499-.6451.3272-.9249.2325-.4382.601-.7892 1.05-1 .4561-.1889.9606-.2274 1.44-.11l-.29-2.94.71.46Zm-1.14 3.16c-.2348.059-.4554.1647-.6485.3108-.193.1462-.3546.3298-.475.5399-.1205.21-.1973.4422-.2259.6827-.0286.2404-.0084.4842.0594.7166.2345.5176.6408.9381 1.15 1.19l1.61.93 1.75-3-1.61-.93c-.4627-.3467-1.0325-.5201-1.61-.49v.05ZM9.43 38.31l.45-.45 3.45 3.55-5 4.88L5 42.85l.46-.45 2.83 2.91L10 43.58 7.52 41l.48-.46 2.53 2.6 1.86-1.81-2.96-3.02ZM2.00035 34.38l.24-1.38.47.07-.27 1.42 1.33-.49.16.44-1.35.46 1.11.94-.32.36-1.07-1-.25 1.42-.48-.09.28-1.42-1.339998.48-.15-.39 1.339998-.47-1.109998-.93.33-.36 1.079998.94Z"/></g><defs><clipPath id="a"><path fill="#fff" d="M0 0h68.93v55.46H0z"/></clipPath></defs></svg>